PathFileType  4	(X/Y/Z) C:\Users\antoi\Documents\MyRepositories\mobilecap\ResultsAnalysis
DataRate	CameraRate	NumFrames	NumMarkers	Units	OrigDataRate	OrigDataStartFrame	OrigNumFrames
100.0	100.0	5	51	mm	100.0	136	271
Frame#	Time	r_knee			r_shank_antsup			r_ankle			r_calc			r_5meta			r_toe			L_knee			L_shank_antsup			L_ankle			L_calc			L_5meta			L_toe			r_sh2			r_sh3			r_sh4			L_sh2			L_sh3			r_thigh1			r_thigh2			r_thigh3			r_thigh4			r_thigh5			L_thigh1			L_thigh2			L_thigh3			L_thigh4			r.ASIS			r.PSIS			L.ASIS			L.PSIS			C7			R_Shoulder			L_Shoulder			R_Sternum			L_Sternum			R_humerus			R_elbow_med			R_elbow_lat			R_forearm			R_wrist_radius			R_wrist_ulna			L_humerus			L_elbow_med			L_elbow_lat			L_forearm			L_wrist_radius			L_wrist_ulna			R_HJC			L_HJC			R_HJC_reg			L_HJC_reg			
		X1	Y1	Z1	X2	Y2	Z2	X3	Y3	Z3	X4	Y4	Z4	X5	Y5	Z5	X6	Y6	Z6	X7	Y7	Z7	X8	Y8	Z8	X9	Y9	Z9	X10	Y10	Z10	X11	Y11	Z11	X12	Y12	Z12	X13	Y13	Z13	X14	Y14	Z14	X15	Y15	Z15	X16	Y16	Z16	X17	Y17	Z17	X18	Y18	Z18	X19	Y19	Z19	X20	Y20	Z20	X21	Y21	Z21	X22	Y22	Z22	X23	Y23	Z23	X24	Y24	Z24	X25	Y25	Z25	X26	Y26	Z26	X27	Y27	Z27	X28	Y28	Z28	X29	Y29	Z29	X30	Y30	Z30	X31	Y31	Z31	X32	Y32	Z32	X33	Y33	Z33	X34	Y34	Z34	X35	Y35	Z35	X36	Y36	Z36	X37	Y37	Z37	X38	Y38	Z38	X39	Y39	Z39	X40	Y40	Z40	X41	Y41	Z41	X42	Y42	Z42	X43	Y43	Z43	X44	Y44	Z44	X45	Y45	Z45	X46	Y46	Z46	X47	Y47	Z47	X48	Y48	Z48	X49	Y49	Z49	X50	Y50	Z50	X51	Y51	Z51	

136	1.35000000	-177.30367	501.74767	-415.69329	-161.68788	420.36054	-400.33970	-322.16842	103.44012	-440.98441	-389.48739	56.84408	-497.70362	-201.90870	38.14021	-391.88860	-156.63298	58.04742	-447.28134	-177.74852	521.54957	-769.34418	-165.90087	407.76358	-791.27375	-294.97168	107.19799	-760.06955	-365.90390	60.95547	-711.06781	-126.18639	55.59732	-755.75378	-161.35208	33.21017	-817.60373	-196.05566	312.74796	-400.93331	-233.91657	443.29917	-389.71288	-275.81254	335.09203	-396.75409	-250.20535	439.48312	-789.57806	-277.84019	321.78394	-786.12413	-292.50501	798.40871	-369.62532	-220.03267	716.97046	-385.30566	-244.76291	658.32470	-362.90963	-376.24407	721.29182	-376.58390	-293.17628	636.37751	-379.22683	-309.87010	815.99975	-760.60914	-214.83846	713.41171	-771.77078	-395.95966	735.05820	-748.16929	-298.40138	638.52107	-770.22790	-336.49432	930.08395	-430.65348	-524.23914	994.07277	-498.85869	-348.01907	929.29648	-685.13266	-529.08303	991.32088	-603.98937	-413.26914	1498.27506	-536.36939	-368.82001	1471.65614	-385.53355	-383.06645	1483.64780	-688.15056	-269.29514	1398.70020	-512.07209	-276.13248	1398.18581	-569.66427	-418.24875	1341.35664	-163.20084	-354.48895	1229.45445	-119.73279	-413.75148	1294.79945	-85.07355	-328.11753	1408.03718	-143.59584	-253.92083	1472.26078	-206.00741	-256.52427	1479.92185	-162.01842	-516.29376	1374.45759	-860.04386	-548.75145	1245.80481	-905.20004	-568.83966	1326.50940	-923.24202	-411.66677	1383.10592	-948.52753	-319.62537	1409.11198	-929.27967	-325.82804	1407.35621	-968.59833	-429.77485	862.76892	-431.44929	-437.12618	861.16996	-661.68540	-420.68645	868.98116	-461.17100	-428.43601	864.57227	-629.07049	
137	1.36000000	-153.61146	502.19093	-422.55557	-144.04730	424.30414	-406.91398	-320.81143	104.64647	-440.67544	-389.08451	57.20596	-497.43164	-201.69579	38.04424	-391.94884	-156.41996	57.85476	-447.15289	-160.41311	515.31552	-764.26729	-151.32873	402.21828	-786.19921	-295.13511	107.41914	-758.99327	-365.97518	59.89064	-710.59389	-126.22999	55.50585	-755.61335	-161.34479	33.39283	-817.53182	-184.03579	318.31748	-401.28402	-214.75429	451.45535	-396.24425	-262.01804	345.27266	-396.33850	-234.44018	437.45138	-786.51887	-267.57342	321.26107	-784.32092	-283.93511	788.72239	-373.27010	-209.44703	709.92062	-390.76529	-229.29358	650.21793	-368.21548	-364.19859	707.75590	-377.54515	-277.60764	626.40540	-382.51346	-303.95653	802.41598	-758.80253	-204.82329	703.28684	-768.32356	-387.08774	718.55802	-744.80326	-285.50307	625.47793	-766.07337	-332.84197	916.37165	-428.88384	-519.70144	978.65231	-500.79416	-342.03808	910.42006	-683.18369	-523.01513	976.94102	-606.43251	-400.05501	1481.21420	-536.75031	-356.24508	1447.71363	-380.95289	-369.19763	1462.95844	-689.43137	-258.16264	1380.21190	-511.53748	-263.76100	1380.28150	-571.25214	-409.17029	1300.30305	-168.49613	-346.18061	1186.67915	-131.87495	-406.70640	1248.99384	-94.77799	-321.28919	1364.21047	-146.59761	-246.39605	1431.39362	-204.36000	-248.96913	1436.69573	-160.50417	-507.95224	1340.73824	-854.70277	-545.23716	1210.01966	-885.37886	-562.87957	1288.43918	-911.15360	-403.18627	1332.11320	-946.27789	-308.71709	1353.58280	-933.11037	-316.62110	1349.76611	-972.99949	-427.03133	849.29039	-429.86501	-431.44205	843.73738	-660.12104	-416.49514	850.81553	-461.19852	-421.74310	848.10597	-629.09007	
138	1.37000000	-139.13506	499.21339	-428.36404	-129.87582	422.45806	-413.42767	-320.08463	104.95198	-442.13566	-388.77933	57.38581	-497.85856	-201.77951	38.27282	-392.44734	-156.37782	57.68121	-447.54193	-144.12009	510.02496	-759.12727	-139.01724	396.46064	-781.43474	-294.68806	107.03289	-757.93599	-366.15622	58.50370	-710.19801	-126.41454	55.40064	-755.64507	-161.39932	33.46239	-817.42921	-172.38926	317.21113	-405.72104	-199.54573	450.98751	-400.23613	-248.25681	347.06842	-397.03266	-220.91571	434.56708	-783.85245	-258.79128	320.12091	-783.32872	-277.04217	778.09985	-376.82093	-201.58148	701.00321	-394.53271	-218.85005	640.61263	-372.29584	-355.33392	695.03770	-378.13089	-266.90771	615.73608	-385.93201	-298.60033	790.60843	-756.85835	-195.96482	694.35169	-764.85079	-379.02409	704.20444	-742.80486	-274.23050	614.26633	-763.47993	-329.36180	905.19919	-427.34393	-515.41218	963.97434	-502.46743	-336.30107	896.43403	-682.09933	-517.74151	962.76641	-607.11893	-388.28260	1465.11957	-536.88937	-342.88892	1425.03183	-377.37409	-354.81246	1443.73521	-688.80727	-247.28661	1363.03025	-511.20528	-252.86513	1363.41648	-570.55989	-398.81647	1265.00287	-175.21345	-338.62959	1146.71235	-144.37991	-399.29891	1207.57620	-106.00778	-311.73717	1322.95266	-151.01704	-237.06735	1393.23267	-204.38486	-237.81384	1394.67410	-160.33023	-498.23864	1310.81210	-848.47731	-538.65193	1179.73367	-863.19857	-553.93514	1254.75576	-898.47039	-393.10573	1283.46142	-943.31838	-297.95856	1299.09474	-937.46177	-306.74074	1292.58613	-976.47458	-422.68323	836.92241	-428.93527	-424.85652	829.31139	-659.17357	-411.42010	836.12421	-460.75281	-415.15884	834.18903	-628.99853	
139	1.38000000	-131.54176	491.55071	-433.36268	-119.86121	413.63774	-418.69730	-319.35260	105.56665	-444.04312	-388.41113	57.47935	-498.50839	-201.92893	38.62773	-393.16174	-156.22239	57.54075	-448.20670	-132.07048	504.08727	-755.28073	-129.50257	390.39467	-777.57537	-293.80420	105.83127	-756.17434	-366.09511	57.48497	-709.49469	-126.72814	55.54090	-755.69108	-161.56919	33.74106	-817.10232	-164.52249	309.21362	-413.02595	-188.65682	443.05133	-402.26974	-238.80295	341.17196	-400.26777	-210.45054	430.06271	-782.01694	-250.92660	316.96574	-782.32495	-272.01561	766.68951	-378.86519	-195.52979	691.17532	-396.77996	-212.58838	630.22080	-375.59137	-349.39789	682.83902	-380.88103	-259.94469	604.77681	-391.23388	-293.42141	780.11597	-755.09793	-188.29638	686.02179	-761.45448	-371.77665	691.75269	-742.23996	-264.71869	604.47001	-761.78351	-326.37637	894.22050	-426.45814	-511.36505	951.17486	-503.48184	-331.44016	885.77321	-682.42516	-513.31854	949.43172	-607.12065	-377.90820	1450.08173	-536.28194	-329.28530	1403.92935	-374.65212	-341.98782	1426.87746	-689.79513	-236.79751	1347.00963	-511.05659	-242.90130	1348.33184	-568.94417	-387.61095	1233.96872	-181.94714	-332.62461	1109.67682	-159.03079	-390.79923	1170.71178	-117.49795	-299.27962	1284.80932	-155.61853	-223.59347	1356.36947	-205.15004	-222.94939	1354.22265	-160.74391	-488.35351	1284.25109	-842.34893	-530.33731	1154.81094	-841.95015	-542.70916	1225.82695	-886.84745	-382.18162	1238.95901	-940.95966	-286.77487	1248.03197	-940.85529	-296.56688	1238.28742	-978.49596	-418.30853	824.87099	-429.14308	-419.11198	817.48200	-659.39243	-407.32076	824.96140	-460.00242	-410.51424	822.10878	-629.00875	
140	1.39000000	-124.78824	482.68570	-437.75035	-113.91063	403.89962	-422.58885	-318.70554	106.10958	-445.74213	-387.99895	57.35094	-499.02789	-202.00026	38.97178	-393.73450	-156.05621	57.48388	-448.76063	-123.39599	497.37758	-753.01405	-122.05775	385.32265	-774.35765	-293.17134	105.05127	-754.38434	-365.69959	57.30868	-708.60406	-126.90408	55.74851	-755.42422	-161.81702	34.17425	-816.50393	-161.60980	300.89559	-418.97149	-181.79073	435.25877	-404.51803	-235.54036	334.42904	-404.93080	-202.36277	425.94313	-780.29446	-244.27385	313.80204	-780.82098	-268.89761	755.46776	-379.40414	-190.92174	682.34149	-398.48400	-208.45357	620.53710	-378.36461	-345.47400	671.24329	-385.43685	-255.14080	594.66385	-396.54936	-288.45727	770.61313	-753.75754	-181.44361	678.50957	-758.88846	-365.20362	680.61202	-742.28213	-256.22901	595.65663	-760.61647	-323.62683	882.40242	-426.67965	-507.56893	940.48221	-504.03149	-327.60704	876.16429	-683.94390	-509.41504	937.58553	-607.43983	-367.69927	1436.24563	-534.78413	-316.26549	1384.64907	-372.41103	-330.27906	1412.01234	-690.75150	-226.47204	1332.19791	-510.56462	-233.29332	1335.23159	-567.09456	-376.43292	1205.65195	-188.05520	-327.76983	1076.39148	-175.69156	-381.05163	1138.05421	-128.11466	-284.16230	1249.67947	-159.37686	-205.53617	1320.48733	-205.32984	-204.54241	1315.62376	-160.92938	-477.97205	1260.54447	-836.52013	-520.95264	1134.21212	-824.43489	-530.60421	1200.72687	-877.16737	-370.94772	1198.30134	-939.14342	-274.75582	1201.53498	-943.36466	-286.14534	1188.18991	-979.61935	-414.80348	813.04299	-430.43187	-415.14022	807.19153	-660.72223	-404.80708	815.82165	-459.84174	-407.83925	811.06574	-629.61233	
